<!DOCTYPE svg PUBLIC "-//W3C//DTD SVG 1.1//EN" "http://www.w3.org/Graphics/SVG/1.1/DTD/svg11.dtd">
<!-- Uploaded to: SVG Repo, www.svgrepo.com, Transformed by: SVG Repo Mixer Tools -->
<svg fill="#ffffff" version="1.1" id="Layer_1" xmlns="http://www.w3.org/2000/svg" xmlns:xlink="http://www.w3.org/1999/xlink" viewBox="0 0 511.998 511.998" xml:space="preserve" width="800px" height="800px" stroke="#ffffff">
<g id="SVGRepo_bgCarrier" stroke-width="0"/>
<g id="SVGRepo_tracerCarrier" stroke-linecap="round" stroke-linejoin="round"/>
<g id="SVGRepo_iconCarrier"> <g> <g> <g> <rect x="264.082" y="279.997" width="15.83" height="15.999"/> <rect x="264.082" y="311.995" width="15.83" height="15.999"/> <rect x="264.082" y="344.003" width="15.83" height="15.999"/> <rect x="232.083" y="180.69" transform="matrix(0.7071 0.7071 -0.7071 0.7071 206.0609 -113.4678)" width="15.83" height="22.627"/> <rect x="252.687" y="208.087" transform="matrix(-0.7071 0.7071 -0.7071 -0.7071 603.4131 182.0623)" width="22.627" height="15.83"/> <path d="M319.914,40c0-19.037-38.474-22.931-56-23.718V0h-15.83v16.281c-17.526,0.787-56,4.682-56,23.718 c0,32.561,24.48,59.494,56,63.407v16.677h-48v271.83h48v16.677c-31.519,3.913-56,30.846-56,63.407 c0,19.037,38.474,22.931,56,23.718v16.281h15.83v-16.281c17.526-0.787,56-4.682,56-23.718c0-32.561-24.48-59.494-56-63.407 v-16.677h48V120.085h-48v-16.677C295.434,99.495,319.914,72.562,319.914,40z M263.914,32.078 c20.778,0.854,34.167,4.944,38.879,7.922c-4.712,2.977-18.1,7.068-38.879,7.921V32.078z M209.206,40 c4.711-2.978,18.1-7.068,38.879-7.922v15.845C227.305,47.068,213.916,42.978,209.206,40z M215.914,311.915h16.171v32.17h-16.171 V311.915z M248.085,479.923c-20.779-0.855-34.167-4.945-38.879-7.922c4.711-2.977,18.1-7.067,38.879-7.921V479.923z M302.792,472 c-4.712,2.978-18.1,7.069-38.879,7.922v-15.845C284.693,464.933,298.081,469.023,302.792,472z M300.55,453.935 c-17.303-5.594-40.53-5.85-44.551-5.85c-4.022,0-27.248,0.256-44.551,5.85c7.157-17.586,24.424-30.021,44.551-30.021 C276.125,423.915,293.393,436.35,300.55,453.935z M296.085,376.085h-80.171v-16.171h32v-63.83h-32v-40.17h80.171V376.085z M296.085,240.085h-80.171v-72.17h80.171V240.085z M296.085,135.915v16.171h-80.171v-16.171H296.085z M255.999,88.085 c-20.127,0-37.394-12.435-44.551-30.021c17.303,5.594,40.53,5.85,44.551,5.85c4.022,0,27.248-0.255,44.551-5.85 C293.393,75.651,276.125,88.085,255.999,88.085z"/> <path d="M344.084,104.085v144h-16.085v15.83h16.085v144h167.83V104.085H344.084z M359.914,119.915h136.17v48.17h-136.17V119.915z M359.914,183.915h136.17v144.17h-136.17V183.915z M359.914,392.085v-48.17h136.17v48.17H359.914z"/> <path d="M167.914,104.085H0.084v303.83h167.83V263.915h16.085v-15.83h-16.085V104.085z M15.914,119.915h136.17v48.17H15.914 V119.915z M15.914,183.915h136.17v144.17H15.914V183.915z M15.914,392.085v-48.17h136.17v48.17H15.914z"/> <rect x="36.08" y="195.029" transform="matrix(0.7071 0.7071 -0.7071 0.7071 162.7912 30.9838)" width="15.83" height="33.939"/> <rect x="17.079" y="228.088" transform="matrix(0.7071 -0.7071 0.7071 0.7071 -146.9643 117.2017)" width="101.827" height="15.83"/> <rect x="84.087" y="205.776" transform="matrix(-0.7071 -0.7071 0.7071 -0.7071 -32.449 522.5632)" width="15.83" height="124.453"/> <rect x="108.079" y="263.72" transform="matrix(-0.7071 -0.7071 0.7071 -0.7071 -8.4654 580.5012)" width="15.83" height="56.568"/> <rect x="380.065" y="195.036" transform="matrix(0.7071 0.7071 -0.7071 0.7071 263.5468 -212.2484)" width="15.83" height="33.939"/> <rect x="361.061" y="228.091" transform="matrix(0.7071 -0.7071 0.7071 0.7071 -46.2167 360.4341)" width="101.827" height="15.83"/> <rect x="373.775" y="260.08" transform="matrix(0.7071 -0.7071 0.7071 0.7071 -61.7993 386.7934)" width="124.453" height="15.83"/> <rect x="452.109" y="263.716" transform="matrix(-0.7071 -0.7071 0.7071 -0.7071 578.8364 823.7615)" width="15.83" height="56.568"/> </g> </g> </g> </g>
</svg>