<!DOCTYPE svg PUBLIC "-//W3C//DTD SVG 1.1//EN" "http://www.w3.org/Graphics/SVG/1.1/DTD/svg11.dtd">
<!-- Uploaded to: SVG Repo, www.svgrepo.com, Transformed by: SVG Repo Mixer Tools -->
<svg fill="#ffffff" version="1.1" id="Layer_1" xmlns="http://www.w3.org/2000/svg" xmlns:xlink="http://www.w3.org/1999/xlink" viewBox="0 0 512 512" xml:space="preserve" width="800px" height="800px" stroke="#ffffff">
<g id="SVGRepo_bgCarrier" stroke-width="0"/>
<g id="SVGRepo_tracerCarrier" stroke-linecap="round" stroke-linejoin="round"/>
<g id="SVGRepo_iconCarrier"> <g> <g> <g> <path d="M416.001,356.242H95.999c-32.956,0-59.769,26.812-59.769,59.769c0,32.956,26.812,59.77,59.769,59.77h320 c32.956,0,59.769-26.813,59.769-59.77C475.768,383.054,448.957,356.242,416.001,356.242z M416.001,460.241H95.999 c-24.388,0-44.23-19.842-44.23-44.231c0-24.388,19.842-44.23,44.23-44.23h320c24.388,0,44.23,19.842,44.23,44.23 C460.231,440.4,440.389,460.241,416.001,460.241z"/> <path d="M497.558,404.241c-0.46-3.259-1.1-6.457-1.925-9.585l13.234-4.816l-5.314-14.602l-13.27,4.829 c-2.023-4.241-4.404-8.276-7.082-12.09l9.965-8.361l-9.988-11.903l-10.04,8.424c-3.213-3.14-6.681-6.02-10.362-8.615 l6.583-11.404l-13.456-7.769l-6.602,11.434c-4.055-1.851-8.277-3.391-12.644-4.583l2.296-13.02l-15.302-2.699l-2.302,13.055 c-2.219-0.177-4.453-0.293-6.717-0.293H406.4v-12.87h-15.539v12.87H374.4v-12.87h-15.539v12.87H342.4v-12.87h-15.539v12.87H310.4 v-12.87h-15.539v12.87h-16.462v-12.87h-15.539v12.87H249.84v-12.87h-15.539v12.87h-18.533v-12.87h-15.539v12.87h-16.46v-12.87 h-15.539v12.87h-16.462v-12.87h-15.539v12.87h-16.462v-12.87h-15.539v12.87h-9.599c-1.805,0-3.59,0.078-5.367,0.191 l-2.284-12.951l-15.302,2.699l2.232,12.66c-4.442,1.135-8.736,2.638-12.864,4.453l-6.318-10.943l-13.456,7.769l6.185,10.714 c-3.804,2.602-7.373,5.518-10.692,8.695l-9.313-7.814l-9.988,11.903l9.109,7.643c-2.708,3.77-5.119,7.764-7.181,11.964 l-10.947-3.985l-5.314,14.602l10.755,3.914c-0.943,3.415-1.677,6.914-2.182,10.487H0v15.539h10.959 c0.216,4.864,0.859,9.617,1.874,14.233l-9.7,3.53l5.315,14.602l9.118-3.319c1.947,4.554,4.298,8.895,6.987,12.994l-7.086,5.946 l9.988,11.903l6.787-5.696c3.469,3.613,7.254,6.918,11.318,9.865l-4.288,7.425l13.456,7.769l4.194-7.266 c4.529,2.143,9.279,3.892,14.206,5.201l-1.451,8.232l15.302,2.699l1.476-8.373c2.042,0.15,4.096,0.252,6.174,0.252h9.599v8.23 h15.539v-8.23h16.462v8.23h15.539v-8.23h16.462v8.23h15.539v-8.23h16.462v8.23h15.539v-8.23h16.462v8.23h15.539v-8.23h16.462 v8.23h15.539v-8.23h16.462v8.23h15.539v-8.23h16.462v8.23h15.539v-8.23h16.462v8.23h15.539v-8.23h16.462v8.23h15.539v-8.23h6.863 c2.997,0,5.954-0.166,8.87-0.473l1.516,8.595l15.302-2.699l-1.582-8.974c4.769-1.436,9.355-3.293,13.728-5.516l4.805,8.321 l13.456-7.769l-5.111-8.852c3.812-2.934,7.368-6.18,10.622-9.714l8.308,6.971l9.988-11.903l-8.864-7.439 c2.454-3.919,4.597-8.05,6.385-12.368l11.498,4.185l5.315-14.602l-12.223-4.449c0.9-4.327,1.458-8.775,1.662-13.315H512v-15.538 H497.558z M414.632,484.241h-320c-37.622,0-68.231-30.609-68.231-68.231c0-37.622,30.608-68.23,68.231-68.23h320 c37.622,0,68.231,30.608,68.231,68.23C482.863,453.632,452.255,484.241,414.632,484.241z"/> <path d="M108,380.242c-19.724,0-35.77,16.046-35.77,35.769c0,19.724,16.046,35.77,35.77,35.77s35.769-16.046,35.769-35.77 C143.769,396.288,127.723,380.242,108,380.242z M108,436.242c-11.156,0-20.231-9.077-20.231-20.231 c0-11.155,9.076-20.23,20.231-20.23s20.23,9.076,20.23,20.23C128.23,427.165,119.155,436.242,108,436.242z"/> <path d="M256,380.242c-19.724,0-35.769,16.046-35.769,35.769c0,19.724,16.046,35.77,35.769,35.77 c19.723,0,35.769-16.046,35.769-35.77C291.769,396.288,275.724,380.242,256,380.242z M256,436.242 c-11.156,0-20.23-9.077-20.23-20.231c0-11.155,9.076-20.23,20.23-20.23s20.23,9.076,20.23,20.23 C276.23,427.165,267.156,436.242,256,436.242z"/> <path d="M404,380.242c-19.724,0-35.769,16.046-35.769,35.769c0,19.724,16.046,35.77,35.769,35.77 c19.724,0,35.77-16.046,35.77-35.77C439.769,396.288,423.723,380.242,404,380.242z M404,436.242 c-11.156,0-20.23-9.077-20.23-20.231c0-11.155,9.076-20.23,20.23-20.23c11.155,0,20.231,9.076,20.231,20.23 C424.231,427.165,415.155,436.242,404,436.242z"/> <rect x="96.236" y="284.007" width="15.539" height="24.002"/> <rect x="408.229" y="284.007" width="15.539" height="24.002"/> <path d="M184,204.241c-13.106,0-23.769,10.663-23.769,23.769s10.663,23.769,23.769,23.769c13.106,0,23.769-10.663,23.769-23.769 S197.106,204.241,184,204.241z M184,236.242c-4.538,0-8.23-3.692-8.23-8.23c0-4.538,3.692-8.23,8.23-8.23s8.23,3.692,8.23,8.23 C192.231,232.55,188.538,236.242,184,236.242z"/> <path d="M248,204.241c-13.106,0-23.769,10.663-23.769,23.769s10.663,23.769,23.769,23.769s23.769-10.663,23.769-23.769 S261.106,204.241,248,204.241z M248,236.242c-4.538,0-8.23-3.692-8.23-8.23c0-4.538,3.692-8.23,8.23-8.23 c4.538,0,8.23,3.692,8.23,8.23C256.23,232.55,252.538,236.242,248,236.242z"/> <rect x="431.984" y="4.233" transform="matrix(0.0018 1 -1 0.0018 451.1939 -428.0016)" width="16" height="15.539"/> <path d="M487.767,140.241H295.769V129.06l63.472-28.21c4.301,4.281,10.225,6.93,16.758,6.93 c13.106,0,23.769-10.663,23.769-23.769c0-13.106-10.663-23.77-23.769-23.77c-6.047,0-11.57,2.273-15.77,6.005l-32.804-26.244 c0.221-1.299,0.342-2.631,0.342-3.992c0-13.106-10.663-23.769-23.769-23.769c-10.386,0-19.232,6.699-22.458,16h-49.541V43.78 h49.541c3.227,9.301,12.072,16,22.458,16c6.047,0,11.569-2.273,15.769-6.005l32.804,26.244c-0.221,1.299-0.342,2.632-0.342,3.992 c0,0.972,0.065,1.929,0.179,2.87l-66.06,29.36h-62.12v24h-72.232c-70.452,0-127.77,57.317-127.77,127.769v7.769h463.539V140.241z M376,75.779c4.538,0,8.23,3.692,8.23,8.231c0,4.538-3.692,8.23-8.23,8.23c-4.538,0-8.23-3.692-8.23-8.23 C367.769,79.472,371.462,75.779,376,75.779z M304,44.241c-4.538,0-8.23-3.692-8.23-8.23c0-4.538,3.692-8.23,8.23-8.23 s8.23,3.692,8.23,8.23C312.23,40.549,308.538,44.241,304,44.241z M239.769,131.78h40.461v8.461h-40.461V131.78z M50.673,219.78 h77.558v16.462H44.349C46.03,230.554,48.152,225.055,50.673,219.78z M472.231,260.24H40.035c0.196-2.851,0.501-5.673,0.907-8.461 h102.826V204.24H59.694c20.277-29.26,54.088-48.462,92.304-48.462h120.23v24.231h15.539v-24.231h16.462v24.231h15.539v-24.231 h16.462v24.231h15.539v-24.231h16.462v24.231h15.539v-24.231h16.462v24.231h15.539v-24.231h16.462v24.231h15.539v-24.231h24.462 v64.462H288v15.539h184.23V260.24z"/> <polygon points="463.999,116.241 447.77,116.241 447.77,28.01 432.231,28.01 432.231,116.241 416.001,116.241 416.001,131.78 463.999,131.78 "/> <path d="M214.804,43.78h9.195V28.241h-9.195c-3.475-13.773-15.967-24-30.805-24h-24V19.78h24c8.949,0,16.231,7.28,16.231,16.231 c0,8.95-7.281,16.231-16.231,16.231h-24V67.78h24C198.838,67.78,211.329,57.553,214.804,43.78z"/> </g> </g> </g> </g>
</svg>